<svg xmlns="http://www.w3.org/2000/svg" version="1.1" xmlns:xlink="http://www.w3.org/1999/xlink" xmlns:svgjs="http://svgjs.dev/svgjs" width="1500" height="94" viewBox="0 0 1500 94"><g transform="matrix(1,0,0,1,-0.9090909090909918,-1.3883790016033615)"><svg viewBox="0 0 396 25" data-background-color="#444444" preserveAspectRatio="xMidYMid meet" height="94" width="1500" xmlns="http://www.w3.org/2000/svg" xmlns:xlink="http://www.w3.org/1999/xlink"><g id="tight-bounds" transform="matrix(1,0,0,1,0.2400000000000091,0.3692497344689798)"><svg viewBox="0 0 395.52 24.261500531062023" height="24.261500531062023" width="395.52"><g><svg viewBox="0 0 434.7913398041488 26.67043467222776" height="24.261500531062023" width="395.52"><g><rect width="2.3932013160498324" height="26.67043467222776" x="30.61321357697375" y="0" fill="#cf51ee" opacity="1" stroke-width="0" stroke="transparent" fill-opacity="1" class="rect-yte-0" data-fill-palette-color="primary" rx="1%" id="yte-0" data-palette-color="#cf51ee"></rect></g><g transform="matrix(1,0,0,1,39.271339804148795,0.06634436485628648)"><svg viewBox="0 0 395.52 26.537745942515187" height="26.537745942515187" width="395.52"><g id="textblocktransform"><svg viewBox="0 0 395.52 26.537745942515187" height="26.537745942515187" width="395.52" id="textblock"><g><svg viewBox="0 0 395.52 26.537745942515187" height="26.537745942515187" width="395.52"><g transform="matrix(1,0,0,1,0,0)"><svg width="395.52" viewBox="2.2 -36.65 549.6099999999999 37" height="26.537745942515187" data-palette-color="#cf51ee"><g class="wordmark-text-0" data-fill-palette-color="primary" id="text-0"><path d="M14.55 0.35L14.55 0.35Q12.6 0.35 10.6-0.1 8.6-0.55 6.93-1.53 5.25-2.5 4.23-4.08 3.2-5.65 3.2-7.85L3.2-7.85Q3.2-8.1 3.2-8.33 3.2-8.55 3.25-8.9L3.25-8.9Q3.4-10.25 3.93-12.25 4.45-14.25 5.15-16.5 5.85-18.75 6.53-20.95 7.2-23.15 7.65-24.98 8.1-26.8 8.1-27.9L8.1-27.9Q8.1-29.1 7.45-29.1L7.45-29.1Q6.8-29.1 5.5-27.85 4.2-26.6 2.5-23.7L2.5-23.7 2.2-23.8Q2.2-27.85 4.03-30.73 5.85-33.6 9.22-35.13 12.6-36.65 17.2-36.65L17.2-36.65Q21.5-36.65 24.6-35.38 27.7-34.1 29.68-31.9 31.65-29.7 32.6-26.88 33.55-24.05 33.55-20.95L33.55-20.95Q33.55-17.2 32.23-13.43 30.9-9.65 28.43-6.53 25.95-3.4 22.43-1.53 18.9 0.35 14.55 0.35ZM15.4-6.25L15.4-6.25Q17.4-6.25 19.03-7.43 20.65-8.6 21.85-10.55 23.05-12.5 23.7-14.88 24.35-17.25 24.35-19.65L24.35-19.65Q24.35-22.5 23.38-25 22.4-27.5 20.25-29.05 18.1-30.6 14.65-30.6L14.65-30.6Q14.9-29.65 15.03-28.65 15.15-27.65 15.15-26.6L15.15-26.6Q15.15-24.3 14.73-21.9 14.3-19.5 13.78-17.25 13.25-15 12.83-13.05 12.4-11.1 12.4-9.6L12.4-9.6Q12.4-8.05 13.05-7.15 13.7-6.25 15.4-6.25ZM49.25 0.35L49.25 0.35Q45.9 0.35 43.47-0.88 41.05-2.1 39.47-4.23 37.9-6.35 37.12-9.05 36.35-11.75 36.35-14.75L36.35-14.75Q36.35-18.55 37.52-22.35 38.7-26.15 40.97-29.3 43.25-32.45 46.55-34.38 49.85-36.3 54.1-36.3L54.1-36.3Q57.45-36.3 59.87-35.08 62.3-33.85 63.87-31.73 65.45-29.6 66.22-26.9 67-24.2 67-21.2L67-21.2Q67-17.45 65.82-13.63 64.65-9.8 62.37-6.65 60.1-3.5 56.8-1.58 53.5 0.35 49.25 0.35ZM51.1-6L51.1-6Q52.85-6 54.15-7.2 55.45-8.4 56.32-10.38 57.2-12.35 57.65-14.75 58.1-17.15 58.1-19.6L58.1-19.6Q58.1-22.3 57.52-24.68 56.95-27.05 55.72-28.53 54.5-30 52.55-30L52.55-30Q50.85-30 49.5-28.83 48.15-27.65 47.2-25.68 46.25-23.7 45.77-21.33 45.3-18.95 45.3-16.55L45.3-16.55Q45.3-13.8 45.95-11.4 46.6-9 47.9-7.5 49.2-6 51.1-6ZM81.84 0.3L81.84 0.3Q78.7 0.3 76.42-0.98 74.15-2.25 72.67-4.48 71.2-6.7 70.52-9.53 69.84-12.35 69.95-15.4L69.95-15.4Q70.15-20.85 71.95-24.8 73.75-28.75 76.5-31.3 79.25-33.85 82.42-35.08 85.59-36.3 88.55-36.3L88.55-36.3Q91.05-36.3 93.07-35.48 95.09-34.65 96.3-33.08 97.5-31.5 97.5-29.25L97.5-29.25Q97.5-27.5 96.47-25.88 95.45-24.25 93.37-23.23 91.3-22.2 88.05-22.2L88.05-22.2Q88.59-23.8 88.84-25 89.09-26.2 89.09-27.05L89.09-27.05Q89.09-28.8 88.3-29.43 87.5-30.05 86.3-30.05L86.3-30.05Q84.84-30.05 83.55-29 82.25-27.95 81.22-26.18 80.2-24.4 79.59-22.25 79-20.1 78.9-17.9L78.9-17.9Q78.7-12.35 80.5-9.5 82.3-6.65 85.15-6.65L85.15-6.65Q87.34-6.65 90.02-8.45 92.7-10.25 95.3-13.9L95.3-13.9 95.95-13.6Q95.3-9.1 93.09-6 90.9-2.9 87.92-1.3 84.95 0.3 81.84 0.3ZM110.59 0.2L110.59 0.2Q109.04 0.2 107.87-0.6 106.69-1.4 106.74-3L106.74-3Q106.84-5.8 107.17-9.2 107.49-12.6 107.94-16.13 108.39-19.65 108.87-22.9 109.34-26.15 109.74-28.7L109.74-28.7Q108.84-28.8 107.99-28.85 107.14-28.9 106.44-28.9L106.44-28.9Q104.34-28.9 102.67-28.5 100.99-28.1 99.84-27.1L99.84-27.1Q99.84-30.25 100.37-32.23 100.89-34.2 102.32-35.1 103.74-36 106.49-36L106.49-36Q108.49-36 110.97-35.68 113.44-35.35 115.99-35 118.54-34.65 120.74-34.65L120.74-34.65Q122.54-34.65 123.97-35 125.39-35.35 126.14-36.25L126.14-36.25Q127.24-35.9 127.84-34.73 128.44-33.55 128.44-32.15L128.44-32.15Q128.44-30.9 127.89-29.73 127.34-28.55 126.14-27.78 124.94-27 122.89-27L122.89-27Q121.94-27 120.57-27.18 119.19-27.35 117.64-27.55L117.64-27.55Q117.09-24.55 116.52-20.38 115.94-16.2 115.57-11.4 115.19-6.6 115.09-1.65L115.09-1.65Q114.19-0.7 112.97-0.25 111.74 0.2 110.59 0.2ZM142.34 0.35L142.34 0.35Q138.99 0.35 136.56-0.88 134.14-2.1 132.56-4.23 130.99-6.35 130.22-9.05 129.44-11.75 129.44-14.75L129.44-14.75Q129.44-18.55 130.62-22.35 131.79-26.15 134.06-29.3 136.34-32.45 139.64-34.38 142.94-36.3 147.19-36.3L147.19-36.3Q150.54-36.3 152.97-35.08 155.39-33.85 156.97-31.73 158.54-29.6 159.31-26.9 160.09-24.2 160.09-21.2L160.09-21.2Q160.09-17.45 158.92-13.63 157.74-9.8 155.47-6.65 153.19-3.5 149.89-1.58 146.59 0.35 142.34 0.35ZM144.19-6L144.19-6Q145.94-6 147.24-7.2 148.54-8.4 149.42-10.38 150.29-12.35 150.74-14.75 151.19-17.15 151.19-19.6L151.19-19.6Q151.19-22.3 150.62-24.68 150.04-27.05 148.81-28.53 147.59-30 145.64-30L145.64-30Q143.94-30 142.59-28.83 141.24-27.65 140.29-25.68 139.34-23.7 138.87-21.33 138.39-18.95 138.39-16.55L138.39-16.55Q138.39-13.8 139.04-11.4 139.69-9 140.99-7.5 142.29-6 144.19-6ZM186.24 0.35L186.24 0.35Q184.49 0.35 183.21-0.53 181.94-1.4 181.01-2.8 180.09-4.2 179.41-5.88 178.74-7.55 178.14-9.1L178.14-9.1Q177.24-11.6 176.49-13.48 175.74-15.35 174.84-16.65L174.84-16.65Q173.89-12.85 173.31-9.35 172.74-5.85 172.59-1.55L172.59-1.55Q171.69-0.7 170.56-0.25 169.44 0.2 168.29 0.2L168.29 0.2Q166.54 0.2 165.19-1.03 163.84-2.25 163.84-5.15L163.84-5.15Q163.84-7.15 164.44-9.65 165.04-12.15 165.91-14.8 166.79-17.45 167.69-19.95 168.59-22.45 169.19-24.48 169.79-26.5 169.79-27.7L169.79-27.7Q169.79-28.95 168.94-28.95L168.94-28.95Q167.99-28.95 166.64-27.53 165.29-26.1 163.89-23.55L163.89-23.55 163.59-23.65Q163.59-26.65 164.89-29 166.19-31.35 168.41-32.98 170.64-34.6 173.56-35.45 176.49-36.3 179.69-36.3L179.69-36.3Q183.94-36.3 186.59-34.98 189.24-33.65 190.51-31.58 191.79-29.5 191.79-27.15L191.79-27.15Q191.79-24.75 190.56-22.45 189.34-20.15 187.11-18.63 184.89-17.1 181.84-16.85L181.84-16.85Q182.89-16.05 183.64-14.83 184.39-13.6 185.19-12.05L185.19-12.05Q185.89-10.65 186.84-9.38 187.79-8.1 189.44-8.1L189.44-8.1Q190.29-8.1 190.84-8.53 191.39-8.95 191.79-9.95L191.79-9.95 192.09-9.8Q192.34-9.05 192.41-8.35 192.49-7.65 192.49-7.05L192.49-7.05Q192.49-3.9 190.74-1.78 188.99 0.35 186.24 0.35ZM177.34-21.25L177.34-21.25Q179.14-21.25 180.46-22.08 181.79-22.9 182.51-24.13 183.24-25.35 183.24-26.6L183.24-26.6Q183.24-28.15 182.06-29.33 180.89-30.5 178.24-30.5L178.24-30.5Q177.84-30.5 177.41-30.48 176.99-30.45 176.59-30.4L176.59-30.4Q176.64-30.05 176.64-29.73 176.64-29.4 176.64-29.4L176.64-29.4Q176.64-27.1 176.46-24.95 176.29-22.8 175.99-21.35L175.99-21.35Q176.34-21.3 176.66-21.28 176.99-21.25 177.34-21.25Z" fill="#cf51ee" data-fill-palette-color="primary"></path><path d="M206.14 0.2L206.14 0.2Q204.59 0.2 203.39-0.55 202.19-1.3 202.19-3.05L202.19-3.05Q202.19-5.8 203.36-8.65 204.54-11.5 206.26-14.28 207.99-17.05 209.71-19.7 211.44-22.35 212.61-24.75 213.79-27.15 213.79-29.2L213.79-29.2Q213.79-30.85 212.99-30.85L212.99-30.85Q212.44-30.85 211.74-29.98 211.04-29.1 210.74-27.4L210.74-27.4 210.19-27.5Q210.19-30.35 211.54-32.33 212.89-34.3 214.99-35.3 217.09-36.3 219.29-36.3L219.29-36.3Q221.84-36.3 224.06-34.85 226.29-33.4 227.14-30.25L227.14-30.25Q227.49-29 227.66-27.45 227.84-25.9 227.89-24.78 227.94-23.65 227.94-23.65L227.94-23.65Q228.04-19.6 228.11-16.8 228.19-14 228.39-12.1 228.59-10.2 228.94-8.9L228.94-8.9Q229.29-7.65 229.86-6.88 230.44-6.1 231.34-6.1L231.34-6.1Q232.19-6.1 232.81-6.6 233.44-7.1 233.64-7.55L233.64-7.55 233.99-7.3Q233.99-5 233.09-3.3 232.19-1.6 230.74-0.7 229.29 0.2 227.69 0.2L227.69 0.2Q226.14 0.2 224.66-0.73 223.19-1.65 222.09-3.6 220.99-5.55 220.64-8.65L220.64-8.65Q219.09-8.75 217.61-8.83 216.14-8.9 214.94-8.9L214.94-8.9Q214.14-8.9 213.41-8.88 212.69-8.85 211.99-8.8L211.99-8.8Q211.54-7.25 211.26-5.68 210.99-4.1 210.99-2.6L210.99-2.6Q210.99-1.45 209.49-0.63 207.99 0.2 206.14 0.2ZM213.64-13.45L213.64-13.45Q214.89-13.8 216.29-13.93 217.69-14.05 219.29-14.05L219.29-14.05 220.39-14.05Q220.29-17.75 220.11-21.65 219.94-25.55 218.84-28.9L218.84-28.9Q218.44-25.3 216.84-21.35 215.24-17.4 213.64-13.45ZM240.94 0.2L240.94 0.2Q239.24 0.2 237.89-1.07 236.54-2.35 236.54-5.4L236.54-5.4Q236.54-7.4 237.11-9.85 237.69-12.3 238.51-14.93 239.34-17.55 240.19-20 241.04-22.45 241.59-24.45 242.14-26.45 242.14-27.6L242.14-27.6Q242.14-28.95 241.09-28.95L241.09-28.95Q239.84-28.95 238.74-27.53 237.64-26.1 236.29-23.55L236.29-23.55 235.99-23.65Q235.99-27.6 238.09-30.53 240.19-33.45 243.76-35.05 247.34-36.65 251.74-36.65L251.74-36.65Q256.19-36.65 258.96-35.13 261.74-33.6 263.06-31.18 264.39-28.75 264.39-26L264.39-26Q264.39-23.65 263.51-21.33 262.64-19 261.01-17.1 259.39-15.2 257.19-14.05 254.99-12.9 252.34-12.9L252.34-12.9Q249.59-12.9 246.64-14.3L246.64-14.3Q245.99-11.85 245.49-9.33 244.99-6.8 244.99-4.15L244.99-4.15Q244.99-2.85 245.14-1.55L245.14-1.55Q244.29-0.7 243.16-0.25 242.04 0.2 240.94 0.2ZM248.94-17.9L248.94-17.9Q250.94-17.9 252.44-19.03 253.94-20.15 254.76-21.88 255.59-23.6 255.59-25.35L255.59-25.35Q255.59-27.4 254.26-29 252.94-30.6 249.94-30.6L249.94-30.6Q249.54-30.6 249.01-30.55 248.49-30.5 247.94-30.4L247.94-30.4Q248.34-29.15 248.46-27.93 248.59-26.7 248.59-25.55L248.59-25.55Q248.59-23.55 248.29-21.7 247.99-19.85 247.59-18.05L247.59-18.05Q248.29-17.9 248.94-17.9ZM271.58 0.2L271.58 0.2Q269.88 0.2 268.53-1.07 267.18-2.35 267.18-5.4L267.18-5.4Q267.18-7.4 267.76-9.85 268.33-12.3 269.16-14.93 269.98-17.55 270.83-20 271.68-22.45 272.23-24.45 272.78-26.45 272.78-27.6L272.78-27.6Q272.78-28.95 271.73-28.95L271.73-28.95Q270.48-28.95 269.38-27.53 268.28-26.1 266.93-23.55L266.93-23.55 266.63-23.65Q266.63-27.6 268.73-30.53 270.83-33.45 274.41-35.05 277.98-36.65 282.38-36.65L282.38-36.65Q286.83-36.65 289.61-35.13 292.38-33.6 293.71-31.18 295.03-28.75 295.03-26L295.03-26Q295.03-23.65 294.16-21.33 293.28-19 291.66-17.1 290.03-15.2 287.83-14.05 285.63-12.9 282.98-12.9L282.98-12.9Q280.23-12.9 277.28-14.3L277.28-14.3Q276.63-11.85 276.13-9.33 275.63-6.8 275.63-4.15L275.63-4.15Q275.63-2.85 275.78-1.55L275.78-1.55Q274.93-0.7 273.81-0.25 272.68 0.2 271.58 0.2ZM279.58-17.9L279.58-17.9Q281.58-17.9 283.08-19.03 284.58-20.15 285.41-21.88 286.23-23.6 286.23-25.35L286.23-25.35Q286.23-27.4 284.91-29 283.58-30.6 280.58-30.6L280.58-30.6Q280.18-30.6 279.66-30.55 279.13-30.5 278.58-30.4L278.58-30.4Q278.98-29.15 279.11-27.93 279.23-26.7 279.23-25.55L279.23-25.55Q279.23-23.55 278.93-21.7 278.63-19.85 278.23-18.05L278.23-18.05Q278.93-17.9 279.58-17.9ZM311.13 0.35L311.13 0.35Q307.78 0.35 305.36-0.88 302.93-2.1 301.36-4.23 299.78-6.35 299.01-9.05 298.23-11.75 298.23-14.75L298.23-14.75Q298.23-18.55 299.41-22.35 300.58-26.15 302.86-29.3 305.13-32.45 308.43-34.38 311.73-36.3 315.98-36.3L315.98-36.3Q319.33-36.3 321.76-35.08 324.18-33.85 325.76-31.73 327.33-29.6 328.11-26.9 328.88-24.2 328.88-21.2L328.88-21.2Q328.88-17.45 327.71-13.63 326.53-9.8 324.26-6.65 321.98-3.5 318.68-1.58 315.38 0.35 311.13 0.35ZM312.98-6L312.98-6Q314.73-6 316.03-7.2 317.33-8.4 318.21-10.38 319.08-12.35 319.53-14.75 319.98-17.15 319.98-19.6L319.98-19.6Q319.98-22.3 319.41-24.68 318.83-27.05 317.61-28.53 316.38-30 314.43-30L314.43-30Q312.73-30 311.38-28.83 310.03-27.65 309.08-25.68 308.13-23.7 307.66-21.33 307.18-18.95 307.18-16.55L307.18-16.55Q307.18-13.8 307.83-11.4 308.48-9 309.78-7.5 311.08-6 312.98-6ZM334.93 0.25L334.93 0.25Q333.53 0.25 332.45-0.93 331.38-2.1 331.38-5.3L331.38-5.3Q331.38-5.85 331.4-6.28 331.43-6.7 331.43-6.9L331.43-6.9Q331.63-8.9 332-11.88 332.38-14.85 332.88-18.13 333.38-21.4 333.9-24.45 334.43-27.5 334.88-29.78 335.33-32.05 335.63-32.9L335.63-32.9Q336.18-34.4 337.6-35.27 339.03-36.15 340.53-36.15L340.53-36.15Q341.83-36.15 342.9-35.4 343.98-34.65 344.38-32.85L344.38-32.85Q344.08-31.85 343.43-29.33 342.78-26.8 342.03-23.15 341.28-19.5 340.6-15.1 339.93-10.7 339.53-5.9L339.53-5.9Q339.48-5.05 339.38-3.93 339.28-2.8 339.23-1.65L339.23-1.65Q338.63-1 337.43-0.38 336.23 0.25 334.93 0.25ZM352.23 0.2L352.23 0.2Q350.38 0.2 348.85-1.3 347.33-2.8 347.33-6.05L347.33-6.05Q347.33-9.3 347.95-12.33 348.58-15.35 349.4-18.15 350.23-20.95 350.85-23.48 351.48-26 351.48-28.25L351.48-28.25Q350.73-28.55 350.08-28.55L350.08-28.55Q349.18-28.55 348.58-28 347.98-27.45 347.63-26.5L347.63-26.5 347.13-26.65Q347.18-30.15 348.15-32.23 349.13-34.3 350.68-35.2 352.23-36.1 353.88-36.1L353.88-36.1Q356.38-36.1 358.35-34.48 360.33-32.85 361.9-30.05 363.48-27.25 364.65-23.73 365.83-20.2 366.68-16.38 367.53-12.55 368.03-8.85L368.03-8.85Q368.33-10.85 368.65-13.75 368.98-16.65 369.23-19.85 369.48-23.05 369.48-25.95L369.48-25.95Q369.48-28.05 369.33-29.78 369.18-31.5 368.83-32.75L368.83-32.75 368.83-33.15Q370.13-34.6 371.45-35.35 372.78-36.1 373.93-36.1L373.93-36.1Q375.63-36.1 376.75-34.63 377.88-33.15 377.88-30.45L377.88-30.45Q377.88-28.45 377.33-25.58 376.78-22.7 376.03-19.45 375.28-16.2 374.7-13.08 374.13-9.95 374.08-7.45L374.08-7.45Q374.08-6.75 374.18-5.95 374.28-5.15 375.23-5.15L375.23-5.15Q375.28-4.95 375.28-4.85 375.28-4.75 375.28-4.65L375.28-4.65Q375.23-2.75 373.73-1.28 372.23 0.2 369.73 0.2L369.73 0.2Q367.78 0.2 366.43-0.8 365.08-1.8 364.18-3.48 363.28-5.15 362.65-7.28 362.03-9.4 361.48-11.65L361.48-11.65Q360.48-15.55 359.4-19.07 358.33-22.6 356.53-25.55L356.53-25.55Q356.63-23.55 356.38-21.18 356.13-18.8 355.85-16.38 355.58-13.95 355.58-11.7L355.58-11.7Q355.58-9.7 355.93-8.03 356.28-6.35 357.18-5.05L357.18-5.05Q357.18-2.6 355.63-1.2 354.08 0.2 352.23 0.2ZM393.02 0.2L393.02 0.2Q391.47 0.2 390.3-0.6 389.12-1.4 389.17-3L389.17-3Q389.27-5.8 389.6-9.2 389.92-12.6 390.37-16.13 390.82-19.65 391.3-22.9 391.77-26.15 392.17-28.7L392.17-28.7Q391.27-28.8 390.42-28.85 389.57-28.9 388.87-28.9L388.87-28.9Q386.77-28.9 385.1-28.5 383.42-28.1 382.27-27.1L382.27-27.1Q382.27-30.25 382.8-32.23 383.32-34.2 384.75-35.1 386.17-36 388.92-36L388.92-36Q390.92-36 393.4-35.68 395.87-35.35 398.42-35 400.97-34.65 403.17-34.65L403.17-34.65Q404.97-34.65 406.4-35 407.82-35.35 408.57-36.25L408.57-36.25Q409.67-35.9 410.27-34.73 410.87-33.55 410.87-32.15L410.87-32.15Q410.87-30.9 410.32-29.73 409.77-28.55 408.57-27.78 407.37-27 405.32-27L405.32-27Q404.37-27 403-27.18 401.62-27.35 400.07-27.55L400.07-27.55Q399.52-24.55 398.95-20.38 398.37-16.2 398-11.4 397.62-6.6 397.52-1.65L397.52-1.65Q396.62-0.7 395.4-0.25 394.17 0.2 393.02 0.2ZM449.32 0L449.32 0Q447.72 0 446.25-0.9 444.77-1.8 443.87-3.75 442.97-5.7 442.97-8.75L442.97-8.75Q442.97-11.25 443.57-14.38 444.17-17.5 445.15-20.65 446.12-23.8 447.27-26.35L447.27-26.35Q443.82-24.05 441.22-20 438.62-15.95 436.72-10.6L436.72-10.6Q437.12-9 437.37-7.6 437.62-6.2 437.62-5.05L437.62-5.05Q437.62-2.85 436.57-1.6 435.52-0.35 432.92-0.35L432.92-0.35Q430.62-0.35 429.55-1.38 428.47-2.4 428.47-4.25L428.47-4.25Q428.47-5.45 428.9-7 429.32-8.55 430.12-10.35L430.12-10.35Q429.22-13 427.92-16.32 426.62-19.65 424.27-23.6L424.27-23.6Q423.57-20.65 422.85-17.73 422.12-14.8 421.65-12.33 421.17-9.85 421.17-8.15L421.17-8.15Q421.17-5.4 422.67-5.4L422.67-5.4 422.77-5.3Q422.77-3.65 421.95-2.48 421.12-1.3 419.85-0.68 418.57-0.05 417.17-0.05L417.17-0.05Q415.82-0.05 414.55-0.7 413.27-1.35 412.47-2.73 411.67-4.1 411.67-6.25L411.67-6.25Q411.67-8.3 412.4-10.73 413.12-13.15 414.22-15.68 415.32-18.2 416.47-20.63 417.62-23.05 418.55-25.18 419.47-27.3 419.77-28.9L419.77-28.9Q418.77-29.6 417.62-29.6L417.62-29.6Q416.67-29.6 415.7-28.98 414.72-28.35 413.87-26.9L413.87-26.9 413.52-27.05Q413.57-29.6 414.62-31.73 415.67-33.85 417.4-35.13 419.12-36.4 421.17-36.4L421.17-36.4Q423.52-36.4 426.02-34.35 428.52-32.3 430.65-27.6 432.77-22.9 434.07-14.9L434.07-14.9Q435.97-21.05 438.17-25.2 440.37-29.35 442.7-31.8 445.02-34.25 447.3-35.33 449.57-36.4 451.62-36.4L451.62-36.4Q454.17-36.4 456.2-35.15 458.22-33.9 459.4-32 460.57-30.1 460.57-28.2L460.57-28.2Q459.32-28.55 458.1-28.7 456.87-28.85 455.72-28.85L455.72-28.85Q454.57-28.85 453.52-28.7L453.52-28.7Q453.07-26.4 452.57-23.58 452.07-20.75 451.7-17.9 451.32-15.05 451.32-12.65L451.32-12.65Q451.32-10.2 451.82-8.65 452.32-7.1 453.57-7.1L453.57-7.1Q454.37-7.1 455.2-7.8 456.02-8.5 456.42-9.95L456.42-9.95 456.77-9.8Q456.77-6.5 455.67-4.33 454.57-2.15 452.85-1.07 451.12 0 449.32 0ZM470.22 0.35L470.22 0.35Q466.87 0.35 464.67-0.88 462.47-2.1 461.42-4.08 460.37-6.05 460.37-8.35L460.37-8.35Q460.37-10.4 461.17-12.4 461.97-14.4 463.54-16.05 465.12-17.7 467.37-18.65L467.37-18.65Q465.32-19.95 464.29-21.78 463.27-23.6 463.27-25.6L463.27-25.6Q463.27-28.2 464.97-30.65 466.67-33.1 469.92-34.7 473.17-36.3 477.72-36.3L477.72-36.3Q480.87-36.3 482.74-35.52 484.62-34.75 485.47-33.52 486.32-32.3 486.32-30.9L486.32-30.9Q486.32-29.3 485.32-27.73 484.32-26.15 482.44-25.15 480.57-24.15 477.87-24.15L477.87-24.15Q478.67-26.5 478.67-28.05L478.67-28.05Q478.67-29.6 478.02-30.3 477.37-31 476.42-31L476.42-31Q475.42-31 474.29-30.25 473.17-29.5 472.42-28.15 471.67-26.8 471.67-25L471.67-25Q471.67-24.05 471.97-22.88 472.27-21.7 472.92-20.55L472.92-20.55Q474.02-21.25 474.94-21.58 475.87-21.9 476.62-21.9L476.62-21.9Q478.17-21.9 478.87-20.83 479.57-19.75 479.57-18.4L479.57-18.4Q479.57-16.8 478.59-15.35 477.62-13.9 475.72-13.9L475.72-13.9Q473.97-13.9 471.62-15.55L471.62-15.55Q468.87-13.6 468.87-10.95L468.87-10.95Q468.87-8.9 470.14-7.85 471.42-6.8 473.42-6.8L473.42-6.8Q475.97-6.8 479.12-8.58 482.27-10.35 484.72-13.9L484.72-13.9 485.12-13.65Q485.02-10.15 483.69-7.53 482.37-4.9 480.24-3.15 478.12-1.4 475.52-0.53 472.92 0.35 470.22 0.35ZM493.17 0.2L493.17 0.2Q491.32 0.2 489.79-1.3 488.27-2.8 488.27-6.05L488.27-6.05Q488.27-9.3 488.89-12.33 489.52-15.35 490.34-18.15 491.17-20.95 491.79-23.48 492.42-26 492.42-28.25L492.42-28.25Q491.67-28.55 491.02-28.55L491.02-28.55Q490.12-28.55 489.52-28 488.92-27.45 488.57-26.5L488.57-26.5 488.07-26.65Q488.12-30.15 489.09-32.23 490.07-34.3 491.62-35.2 493.17-36.1 494.82-36.1L494.82-36.1Q497.32-36.1 499.29-34.48 501.27-32.85 502.84-30.05 504.42-27.25 505.59-23.73 506.77-20.2 507.62-16.38 508.47-12.55 508.97-8.85L508.97-8.85Q509.27-10.85 509.59-13.75 509.92-16.65 510.17-19.85 510.42-23.05 510.42-25.95L510.42-25.95Q510.42-28.05 510.27-29.78 510.12-31.5 509.77-32.75L509.77-32.75 509.77-33.15Q511.07-34.6 512.39-35.35 513.72-36.1 514.87-36.1L514.87-36.1Q516.57-36.1 517.69-34.63 518.82-33.15 518.82-30.45L518.82-30.45Q518.82-28.45 518.27-25.58 517.72-22.7 516.97-19.45 516.22-16.2 515.64-13.08 515.07-9.95 515.02-7.45L515.02-7.45Q515.02-6.75 515.12-5.95 515.22-5.15 516.17-5.15L516.17-5.15Q516.22-4.95 516.22-4.85 516.22-4.75 516.22-4.65L516.22-4.65Q516.17-2.75 514.67-1.28 513.17 0.2 510.67 0.2L510.67 0.2Q508.72 0.2 507.37-0.8 506.02-1.8 505.12-3.48 504.22-5.15 503.59-7.28 502.97-9.4 502.42-11.65L502.42-11.65Q501.42-15.55 500.34-19.07 499.27-22.6 497.47-25.55L497.47-25.55Q497.57-23.55 497.32-21.18 497.07-18.8 496.79-16.38 496.52-13.95 496.52-11.7L496.52-11.7Q496.52-9.7 496.87-8.03 497.22-6.35 498.12-5.05L498.12-5.05Q498.12-2.6 496.57-1.2 495.02 0.2 493.17 0.2ZM533.96 0.2L533.96 0.2Q532.41 0.2 531.24-0.6 530.06-1.4 530.11-3L530.11-3Q530.21-5.8 530.54-9.2 530.86-12.6 531.31-16.13 531.76-19.65 532.24-22.9 532.71-26.15 533.11-28.7L533.11-28.7Q532.21-28.8 531.36-28.85 530.51-28.9 529.81-28.9L529.81-28.9Q527.71-28.9 526.04-28.5 524.36-28.1 523.21-27.1L523.21-27.1Q523.21-30.25 523.74-32.23 524.26-34.2 525.69-35.1 527.11-36 529.86-36L529.86-36Q531.86-36 534.34-35.68 536.81-35.35 539.36-35 541.91-34.65 544.11-34.65L544.11-34.65Q545.91-34.65 547.34-35 548.76-35.35 549.51-36.25L549.51-36.25Q550.61-35.9 551.21-34.73 551.81-33.55 551.81-32.15L551.81-32.15Q551.81-30.9 551.26-29.73 550.71-28.55 549.51-27.78 548.31-27 546.26-27L546.26-27Q545.31-27 543.94-27.18 542.56-27.35 541.01-27.55L541.01-27.55Q540.46-24.55 539.89-20.38 539.31-16.2 538.94-11.4 538.56-6.6 538.46-1.65L538.46-1.65Q537.56-0.7 536.34-0.25 535.11 0.2 533.96 0.2Z" fill="#00d1cd" data-fill-palette-color="secondary"></path></g></svg></g></svg></g></svg></g></svg></g><g transform="matrix(1,0,0,1,0,0.06634436485628648)"><svg viewBox="0 0 24.348288665848532 26.537745942515187" height="26.537745942515187" width="24.348288665848532"><g><svg xmlns="http://www.w3.org/2000/svg" xmlns:xlink="http://www.w3.org/1999/xlink" version="1.1" x="0" y="0" viewBox="3.554 0.126 91.401 99.61999999999999" enable-background="new 0 0 100 100" xml:space="preserve" height="26.537745942515187" width="24.348288665848532" class="icon-icon-0" data-fill-palette-color="accent" id="icon-0"><path d="M60.094 49.245C60.16 49.845 59.26 49.944 59.194 49.343 59.126 48.723 58.389 47.86 57.717 48.049 57.135 48.212 56.889 47.34 57.471 47.176 58.717 46.827 59.967 48.078 60.094 49.245M22.841 96.787A5.32 5.32 0 0 1 25.798 90.058C25.776 89.849 25.757 89.638 25.739 89.426 25.687 88.76 25.942 88.271 26.337 87.963 26.218 82.48 28.024 76.735 31.333 71.663 27.923 72.797 23.905 74.12 23.905 74.12 12.827 77.902 5.835 80.266 4.29 89.005 4.273 89.1 3.659 94.897 3.554 99.745V99.746H25.505A5.3 5.3 0 0 1 22.841 96.787M49.917 58.594H48.671C47.904 58.594 47.904 59.744 48.671 59.744H49.917C50.686 59.744 50.686 58.594 49.917 58.594M53.648 32.708C55.455 31.851 57.568 31.513 59.82 31.909 61.327 32.174 62.687 32.73 63.841 33.491 65.02 34.267 66.186 32.501 65.005 31.725A12.75 12.75 0 0 0 60.19 29.826C57.499 29.352 54.94 29.753 52.741 30.796 51.466 31.401 52.373 33.313 53.648 32.708M26.794 35.305C26.048 35.488 26.324 36.605 27.067 36.422 27.583 36.294 28.536 36.897 29.278 38.262 29.093 38.491 29.038 38.886 29.165 39.329 29.364 40.019 29.927 40.59 30.419 40.551 31.499 40.467 30.809 38.86 30.745 38.705 29.944 36.681 28.388 34.911 26.794 35.305M62.046 36.304C62.38 37.038 63.483 36.54 63.149 35.805 62.44 34.233 60.553 33.222 58.397 33.221 56.253 33.221 54.293 34.226 53.58 35.804 53.246 36.54 54.349 37.037 54.681 36.303 55.048 35.494 56.035 34.777 57.365 34.526A1.694 1.694 0 0 0 56.947 36.962H59.66A1.7 1.7 0 0 0 59.173 34.485C60.609 34.688 61.654 35.439 62.046 36.304M94.223 89.005C92.678 80.266 85.688 77.902 74.61 74.121 74.61 74.121 69.542 72.453 65.958 71.258 66.437 73.756 66.487 76.36 66.735 78.876 66.968 81.253 67.338 83.759 68.186 86.38 68.651 86.504 69.069 86.839 69.292 87.443 69.393 87.718 69.499 87.996 69.613 88.269 75.162 86.572 79.5 88.882 82.013 94.8 82.755 96.551 83.177 98.205 83.331 99.744H94.955C94.852 94.898 94.24 89.102 94.223 89.005M68.248 40.551C68.742 40.589 69.305 40.019 69.502 39.329 69.629 38.886 69.577 38.491 69.389 38.262 70.131 36.898 71.084 36.295 71.6 36.422 72.344 36.606 72.62 35.488 71.875 35.305 70.279 34.911 68.723 36.681 67.924 38.705 67.857 38.861 67.168 40.467 68.248 40.551M30.503 93.996A2.835 2.835 0 0 0 25.177 95.936 2.833 2.833 0 0 0 30.503 93.996M39.651 42.171C36.37 42.171 34.755 40.999 34.536 38.26A0.57 0.57 0 0 1 35.108 37.638H45.14A0.57 0.57 0 0 1 45.714 38.26L45.706 38.343C45.839 37.819 46.042 37.353 46.782 36.983 47.618 36.656 48.454 36.306 49.358 36.226H49.46C50.358 36.306 51.188 36.658 52.018 36.983 52.747 37.348 52.954 37.804 53.086 38.318 53.119 37.935 53.27 37.638 53.658 37.638H63.691A0.57 0.57 0 0 1 64.265 38.26C64.045 40.998 62.431 42.171 59.15 42.171 57.271 42.171 54.107 42.272 53.355 40.008 53.109 40.428 52.437 40.593 52.113 39.175 52.011 38.739 51.996 38.269 51.545 38.034 50.857 37.763 50.156 37.453 49.41 37.378 48.658 37.454 47.949 37.762 47.254 38.034 46.713 38.316 46.68 39.405 46.445 39.951 46.23 40.445 45.648 40.368 45.424 40.036 44.938 41.508 43.651 42.171 39.651 42.171M54.289 38.789C54.322 39.093 54.361 39.35 54.426 39.573 54.9 41.23 58.1 41.02 59.15 41.02 61.712 41.02 62.728 40.311 63.033 38.789zM39.651 41.02C40.701 41.02 43.902 41.23 44.373 39.573 44.437 39.349 44.477 39.093 44.512 38.789H35.766C36.071 40.311 37.086 41.02 39.651 41.02M41.009 47.175C39.765 46.827 38.515 48.077 38.388 49.244 38.321 49.844 39.222 49.944 39.288 49.342 39.355 48.722 40.091 47.86 40.765 48.049 41.347 48.212 41.591 47.34 41.009 47.175M50.947 45.028C50.65 45.251 50.306 45.408 49.271 45.408 48.24 45.408 47.916 45.253 47.617 45.028 46.943 44.524 46.115 44.426 45.435 44.924A1.4 1.4 0 0 0 45.234 45.1C44.717 45.666 45.564 46.443 46.084 45.878 46.371 45.665 46.627 45.726 46.926 45.949 46.986 45.994 47.047 46.036 47.125 46.091 47.805 46.608 48.352 47.14 49.299 47.139 50.25 47.141 50.789 46.608 51.467 46.091 51.5 46.065 51.529 46.036 51.559 46.008L51.639 45.948C51.891 45.758 52.184 45.658 52.481 45.877 53.001 46.443 53.848 45.665 53.331 45.099 52.721 44.403 51.648 44.503 50.947 45.028M38.759 31.91C41.013 31.513 43.128 31.85 44.935 32.708 46.208 33.313 47.117 31.401 45.842 30.797 43.643 29.753 41.082 29.352 38.393 29.827 36.604 30.142 34.973 30.806 33.575 31.726 32.397 32.502 33.563 34.268 34.739 33.492A10.7 10.7 0 0 1 38.759 31.91M49.283 54.302C45.137 54.3 44.734 52.973 42.203 50.633L42.146 50.572A11 11 0 0 1 40.88 50.14C40.169 49.854 40.597 48.786 41.31 49.072 42.831 49.684 44.001 49.831 46.322 49.905 46.322 49.905 47.527 49.958 49.289 49.968A90 90 0 0 0 52.26 49.905C54.582 49.83 55.752 49.684 57.274 49.072 57.985 48.786 58.416 49.854 57.705 50.14 57.265 50.318 56.847 50.46 56.433 50.575L56.374 50.633C53.84 52.975 53.43 54.3 49.283 54.302M49.273 52.609C51.008 52.597 52.684 52.38 53.293 52.013 53.664 51.708 54.022 51.347 54.428 50.931A31 31 0 0 1 52.301 51.054C52.203 51.06 51.006 51.109 49.291 51.119A88 88 0 0 1 46.277 51.054 30 30 0 0 1 44.146 50.929C44.558 51.351 44.916 51.716 45.291 52.021 45.91 52.381 47.557 52.598 49.273 52.609M43.903 36.304C44.234 37.038 45.337 36.54 45.005 35.805 44.291 34.227 42.33 33.222 40.187 33.222 38.033 33.222 36.146 34.234 35.435 35.805 35.103 36.54 36.205 37.038 36.535 36.304 36.926 35.439 37.97 34.689 39.408 34.485A1.7 1.7 0 0 0 38.924 36.963H41.639A1.7 1.7 0 0 0 41.221 34.527C42.549 34.778 43.536 35.495 43.903 36.304M61.445 99.745H30.171A5.32 5.32 0 0 0 32.833 93.148 5.3 5.3 0 0 0 29.179 89.824 19 19 0 0 1 29.115 89.155C29.066 88.532 28.769 88.101 28.371 87.853 28.26 82.068 30.48 75.863 34.611 70.566 35.082 70.406 35.461 70.277 35.707 70.191 35.707 70.088 35.734 70.001 35.783 69.922L38.295 62.922 38.336 62.884A0.6 0.6 0 0 1 38.494 62.648L38.937 62.22 38.072 58.48A0.7 0.7 0 0 1 38.054 58.341 14.2 14.2 0 0 1 35.075 55.372C33.288 52.974 31.995 49.757 31.411 45.503 29.782 45.866 28.479 45.062 27.186 43.281 25.729 41.27 24.323 38.615 24.19 36.109 24.059 33.538 25.428 31.387 28.079 32.109 28.556 32.239 29.02 32.463 29.464 32.763 29.107 30.458 27.55 28.826 27.55 25.9V25.692C27.556 22.608 27.695 19.638 28.116 16.888 29.495 7.895 33.932 1.11 46.403 0.225A41 41 0 0 1 49.196 0.126H49.203V0.128H49.377C49.699 0.128 50.018 0.133 50.33 0.14 64.954 0.491 69.493 8.225 70.663 18.401 70.937 20.797 71.029 23.309 71.029 25.902 71.029 28.853 69.443 30.487 69.105 32.825 70.142 32.093 71.314 31.767 72.45 32.134 75.972 33.286 73.962 38.953 73.21 40.385 71.218 44.165 69.564 46.049 67.188 45.489 66.686 49.148 65.653 52.034 64.245 54.297 63.167 56.024 61.882 57.363 60.46 58.397L60.444 58.481 59.581 62.221 59.985 62.612A0.6 0.6 0 0 1 60.149 62.79C60.2 62.86 60.229 62.936 60.243 63.012L62.743 69.947C62.784 70.019 62.813 70.103 62.815 70.195 63.028 70.271 63.335 70.375 63.71 70.505 64.015 71.679 64.183 72.945 64.312 74.29 64.743 78.797 64.958 82.882 66.288 87.062 65.999 87.458 65.891 87.998 66.118 88.613 66.236 88.939 66.363 89.267 66.501 89.593 62.413 91.857 60.669 95.376 61.445 99.745M30.395 31.707C30.752 30.218 31.514 28.806 32.057 26.406 32.293 25.368 32.434 24.166 32.366 22.657A20 20 0 0 0 32.268 21.428C31.77 16.878 34.774 17.078 37.909 18.015 41.63 19.127 45.343 20.908 49.29 20.908 53.216 20.908 56.915 19.147 60.602 18.035 63.759 17.083 66.813 16.84 66.309 21.427 66.253 21.928 66.221 22.399 66.205 22.844 66.061 26.985 67.683 29.027 68.176 31.732 68.724 29.782 69.879 28.03 69.879 25.902 69.879 23.352 69.789 20.881 69.523 18.548 68.4 8.79 64.227 1.623 50.306 1.291A36 36 0 0 0 49.376 1.279L49.29 1.278 49.202 1.279C48.261 1.28 47.36 1.313 46.501 1.373 34.666 2.21 30.574 8.482 29.257 17.053 28.841 19.761 28.706 22.672 28.7 25.698V25.905C28.7 28.022 29.846 29.767 30.395 31.707M45.035 60C46.902 60.33 46.279 61.052 49.289 61.052 52.312 61.052 51.666 60.33 53.506 60.007 57.342 59.328 60.869 57.524 63.256 53.695 64.643 51.472 65.672 48.549 66.121 44.721L66.129 44.653 66.139 44.592A0.54 0.54 0 0 1 66.401 44.217 0.54 0.54 0 0 1 66.854 44.162L66.916 44.185 66.978 44.21 67.226 44.308C68.767 44.801 70.021 43.966 72.187 39.854 73.244 37.843 74.123 33.892 72.103 33.231 71.119 32.914 69.861 33.407 68.717 34.733 67.98 37.227 66.847 38.74 66.821 38.771 66.381 39.363 65.51 38.742 65.856 38.147 69.225 30.893 64.813 29.736 65.049 22.809 65.172 19.293 65.801 17.668 60.93 19.137 57.119 20.287 53.354 22.058 49.287 22.058 45.199 22.058 41.424 20.268 37.59 19.12 34.319 18.142 33.084 18.336 33.41 21.302 33.461 21.757 33.494 22.188 33.514 22.6 33.586 24.219 33.436 25.526 33.18 26.652 32.143 31.227 30.233 32.127 32.305 37.206 32.434 37.524 32.575 37.846 32.733 38.182 33.065 38.897 32.227 39.4 31.751 38.771 31.751 38.771 31.501 38.441 31.159 37.833A15 15 0 0 1 29.821 34.605C29.159 33.874 28.444 33.404 27.78 33.222 25.88 32.703 25.251 34.363 25.337 36.046 25.456 38.316 26.794 40.781 28.108 42.597 29.36 44.323 30.294 44.66 31.403 44.315 31.518 44.257 31.626 44.219 31.727 44.198A0.8 0.8 0 0 1 31.989 44.18C32.235 44.203 32.395 44.353 32.434 44.546A0.6 0.6 0 0 1 32.463 44.683C32.981 49.125 34.258 52.353 35.988 54.676 38.344 57.832 41.57 59.384 45.035 60M36.397 86.837L39.545 86.225 39.057 83.704 35.907 84.316 35.296 81.168 32.775 81.657 33.386 84.806 30.236 85.418 30.726 87.939 33.876 87.327 34.487 90.478 37.01 89.986zM47.414 76.261L45.08 72.537 44.9 72.786C43.82 74.31 43.111 75.816 42.351 76.949 41.552 78.136 40.589 79.095 39.015 79.137A0.6 0.6 0 0 1 38.888 79.128 0.5 0.5 0 0 1 38.644 79.061L44.238 97.626zM47.468 68.577C44.044 68.202 40.849 66.681 39.355 63.417L36.896 70.23 39.355 77.948C40.164 77.806 40.759 77.255 41.394 76.306 42.162 75.166 42.874 73.654 43.958 72.123 44.823 70.898 45.929 69.657 47.468 68.577M49.255 67.525C52.908 67.525 56.498 66.213 58.129 62.81 58.365 62.318 58.449 61.989 58.449 61.989L59.074 59.282C57.404 60.222 55.59 60.81 53.732 61.138 53.17 61.236 52.855 61.493 52.379 61.715 51.775 61.995 50.951 62.203 49.289 62.203 47.6 62.203 46.9 62.048 45.51 61.354A2.3 2.3 0 0 0 44.838 61.134C42.953 60.799 41.115 60.197 39.426 59.235L40.067 62.006S40.137 62.339 40.35 62.828C41.88 66.318 45.644 67.525 49.255 67.525M51.039 68.573C52.039 69.273 52.855 70.043 53.545 70.835 55.215 72.755 55.899 74.606 57.272 76.525 57.852 77.337 58.414 77.818 59.16 77.95L61.627 70.252 59.168 63.424C57.555 66.59 54.453 68.177 51.039 68.573M59.868 79.066A0.57 0.57 0 0 1 59.515 79.136C58.044 79.105 57.103 78.273 56.333 77.193 55.259 75.689 54.495 74.042 53.429 72.547L51.099 76.261 54.275 97.626zM70.08 89.33C70.891 91.316 67.916 92.673 66.963 90.648 63.328 92.698 61.834 95.791 62.611 99.745H82.183C82.015 98.29 81.599 96.773 80.953 95.25 78.68 89.895 74.971 87.887 70.08 89.33" fill="#b873e8" data-fill-palette-color="accent"></path></svg></g></svg></g></svg></g><defs></defs></svg><rect width="395.52" height="24.261500531062023" fill="none" stroke="none" visibility="hidden"></rect></g></svg></g></svg>