<svg xmlns="http://www.w3.org/2000/svg" version="1.1" xmlns:xlink="http://www.w3.org/1999/xlink" xmlns:svgjs="http://svgjs.dev/svgjs" width="1500" height="125" viewBox="0 0 1500 125"><g transform="matrix(1,0,0,1,-0.9090909090909918,0.03697914884327247)"><svg viewBox="0 0 396 33" data-background-color="#ffffff" preserveAspectRatio="xMidYMid meet" height="125" width="1500" xmlns="http://www.w3.org/2000/svg" xmlns:xlink="http://www.w3.org/1999/xlink"><g id="tight-bounds" transform="matrix(1,0,0,1,0.2400000000000091,0.03942258678509347)"><svg viewBox="0 0 395.52 32.92115482642983" height="32.92115482642983" width="395.52"><g><svg viewBox="0 0 446.360191880627 37.15284431952126" height="32.92115482642983" width="395.52"><g><rect width="2.3932013160498324" height="26.67043467222776" x="42.182065653451936" y="5.241204823646749" fill="#cf51ee" opacity="1" stroke-width="0" stroke="transparent" fill-opacity="1" class="rect-yte-0" data-fill-palette-color="primary" rx="1%" id="yte-0" data-palette-color="#cf51ee"></rect></g><g transform="matrix(1,0,0,1,50.84019188062698,5.307549188503035)"><svg viewBox="0 0 395.52 26.537745942515187" height="26.537745942515187" width="395.52"><g id="textblocktransform"><svg viewBox="0 0 395.52 26.537745942515187" height="26.537745942515187" width="395.52" id="textblock"><g><svg viewBox="0 0 395.52 26.537745942515187" height="26.537745942515187" width="395.52"><g transform="matrix(1,0,0,1,0,0)"><svg width="395.52" viewBox="2.2 -36.65 551.41 37" height="26.537745942515187" data-palette-color="#cf51ee"><path d="M14.55 0.35L14.55 0.35Q12.6 0.35 10.6-0.1 8.6-0.55 6.93-1.53 5.25-2.5 4.23-4.08 3.2-5.65 3.2-7.85L3.2-7.85Q3.2-8.1 3.2-8.33 3.2-8.55 3.25-8.9L3.25-8.9Q3.4-10.25 3.93-12.25 4.45-14.25 5.15-16.5 5.85-18.75 6.53-20.95 7.2-23.15 7.65-24.98 8.1-26.8 8.1-27.9L8.1-27.9Q8.1-29.1 7.45-29.1L7.45-29.1Q6.8-29.1 5.5-27.85 4.2-26.6 2.5-23.7L2.5-23.7 2.2-23.8Q2.2-27.85 4.03-30.73 5.85-33.6 9.22-35.13 12.6-36.65 17.2-36.65L17.2-36.65Q21.5-36.65 24.6-35.38 27.7-34.1 29.68-31.9 31.65-29.7 32.6-26.88 33.55-24.05 33.55-20.95L33.55-20.95Q33.55-17.2 32.23-13.43 30.9-9.65 28.43-6.53 25.95-3.4 22.43-1.53 18.9 0.35 14.55 0.35ZM15.4-6.25L15.4-6.25Q17.4-6.25 19.03-7.43 20.65-8.6 21.85-10.55 23.05-12.5 23.7-14.88 24.35-17.25 24.35-19.65L24.35-19.65Q24.35-22.5 23.38-25 22.4-27.5 20.25-29.05 18.1-30.6 14.65-30.6L14.65-30.6Q14.9-29.65 15.03-28.65 15.15-27.65 15.15-26.6L15.15-26.6Q15.15-24.3 14.73-21.9 14.3-19.5 13.78-17.25 13.25-15 12.83-13.05 12.4-11.1 12.4-9.6L12.4-9.6Q12.4-8.05 13.05-7.15 13.7-6.25 15.4-6.25ZM49.25 0.35L49.25 0.35Q45.9 0.35 43.47-0.88 41.05-2.1 39.47-4.23 37.9-6.35 37.12-9.05 36.35-11.75 36.35-14.75L36.35-14.75Q36.35-18.55 37.52-22.35 38.7-26.15 40.97-29.3 43.25-32.45 46.55-34.38 49.85-36.3 54.1-36.3L54.1-36.3Q57.45-36.3 59.87-35.08 62.3-33.85 63.87-31.73 65.45-29.6 66.22-26.9 67-24.2 67-21.2L67-21.2Q67-17.45 65.82-13.63 64.65-9.8 62.37-6.65 60.1-3.5 56.8-1.58 53.5 0.35 49.25 0.35ZM51.1-6L51.1-6Q52.85-6 54.15-7.2 55.45-8.4 56.32-10.38 57.2-12.35 57.65-14.75 58.1-17.15 58.1-19.6L58.1-19.6Q58.1-22.3 57.52-24.68 56.95-27.05 55.72-28.53 54.5-30 52.55-30L52.55-30Q50.85-30 49.5-28.83 48.15-27.65 47.2-25.68 46.25-23.7 45.77-21.33 45.3-18.95 45.3-16.55L45.3-16.55Q45.3-13.8 45.95-11.4 46.6-9 47.9-7.5 49.2-6 51.1-6ZM81.84 0.3L81.84 0.3Q78.7 0.3 76.42-0.98 74.15-2.25 72.67-4.48 71.2-6.7 70.52-9.53 69.84-12.35 69.95-15.4L69.95-15.4Q70.15-20.85 71.95-24.8 73.75-28.75 76.5-31.3 79.25-33.85 82.42-35.08 85.59-36.3 88.55-36.3L88.55-36.3Q91.05-36.3 93.07-35.48 95.09-34.65 96.3-33.08 97.5-31.5 97.5-29.25L97.5-29.25Q97.5-27.5 96.47-25.88 95.45-24.25 93.37-23.23 91.3-22.2 88.05-22.2L88.05-22.2Q88.59-23.8 88.84-25 89.09-26.2 89.09-27.05L89.09-27.05Q89.09-28.8 88.3-29.43 87.5-30.05 86.3-30.05L86.3-30.05Q84.84-30.05 83.55-29 82.25-27.95 81.22-26.18 80.2-24.4 79.59-22.25 79-20.1 78.9-17.9L78.9-17.9Q78.7-12.35 80.5-9.5 82.3-6.65 85.15-6.65L85.15-6.65Q87.34-6.65 90.02-8.45 92.7-10.25 95.3-13.9L95.3-13.9 95.95-13.6Q95.3-9.1 93.09-6 90.9-2.9 87.92-1.3 84.95 0.3 81.84 0.3ZM110.59 0.2L110.59 0.2Q109.04 0.2 107.87-0.6 106.69-1.4 106.74-3L106.74-3Q106.84-5.8 107.17-9.2 107.49-12.6 107.94-16.13 108.39-19.65 108.87-22.9 109.34-26.15 109.74-28.7L109.74-28.7Q108.84-28.8 107.99-28.85 107.14-28.9 106.44-28.9L106.44-28.9Q104.34-28.9 102.67-28.5 100.99-28.1 99.84-27.1L99.84-27.1Q99.84-30.25 100.37-32.23 100.89-34.2 102.32-35.1 103.74-36 106.49-36L106.49-36Q108.49-36 110.97-35.68 113.44-35.35 115.99-35 118.54-34.65 120.74-34.65L120.74-34.65Q122.54-34.65 123.97-35 125.39-35.35 126.14-36.25L126.14-36.25Q127.24-35.9 127.84-34.73 128.44-33.55 128.44-32.15L128.44-32.15Q128.44-30.9 127.89-29.73 127.34-28.55 126.14-27.78 124.94-27 122.89-27L122.89-27Q121.94-27 120.57-27.18 119.19-27.35 117.64-27.55L117.64-27.55Q117.09-24.55 116.52-20.38 115.94-16.2 115.57-11.4 115.19-6.6 115.09-1.65L115.09-1.65Q114.19-0.7 112.97-0.25 111.74 0.2 110.59 0.2ZM142.34 0.35L142.34 0.35Q138.99 0.35 136.56-0.88 134.14-2.1 132.56-4.23 130.99-6.35 130.22-9.05 129.44-11.75 129.44-14.75L129.44-14.75Q129.44-18.55 130.62-22.35 131.79-26.15 134.06-29.3 136.34-32.45 139.64-34.38 142.94-36.3 147.19-36.3L147.19-36.3Q150.54-36.3 152.97-35.08 155.39-33.85 156.97-31.73 158.54-29.6 159.31-26.9 160.09-24.2 160.09-21.2L160.09-21.2Q160.09-17.45 158.92-13.63 157.74-9.8 155.47-6.65 153.19-3.5 149.89-1.58 146.59 0.35 142.34 0.35ZM144.19-6L144.19-6Q145.94-6 147.24-7.2 148.54-8.4 149.42-10.38 150.29-12.35 150.74-14.75 151.19-17.15 151.19-19.6L151.19-19.6Q151.19-22.3 150.62-24.68 150.04-27.05 148.81-28.53 147.59-30 145.64-30L145.64-30Q143.94-30 142.59-28.83 141.24-27.65 140.29-25.68 139.34-23.7 138.87-21.33 138.39-18.95 138.39-16.55L138.39-16.55Q138.39-13.8 139.04-11.4 139.69-9 140.99-7.5 142.29-6 144.19-6ZM186.24 0.35L186.24 0.35Q184.49 0.35 183.21-0.53 181.94-1.4 181.01-2.8 180.09-4.2 179.41-5.88 178.74-7.55 178.14-9.1L178.14-9.1Q177.24-11.6 176.49-13.48 175.74-15.35 174.84-16.65L174.84-16.65Q173.89-12.85 173.31-9.35 172.74-5.85 172.59-1.55L172.59-1.55Q171.69-0.7 170.56-0.25 169.44 0.2 168.29 0.2L168.29 0.2Q166.54 0.2 165.19-1.03 163.84-2.25 163.84-5.15L163.84-5.15Q163.84-7.15 164.44-9.65 165.04-12.15 165.91-14.8 166.79-17.45 167.69-19.95 168.59-22.45 169.19-24.48 169.79-26.5 169.79-27.7L169.79-27.7Q169.79-28.95 168.94-28.95L168.94-28.95Q167.99-28.95 166.64-27.53 165.29-26.1 163.89-23.55L163.89-23.55 163.59-23.65Q163.59-26.65 164.89-29 166.19-31.35 168.41-32.98 170.64-34.6 173.56-35.45 176.49-36.3 179.69-36.3L179.69-36.3Q183.94-36.3 186.59-34.98 189.24-33.65 190.51-31.58 191.79-29.5 191.79-27.15L191.79-27.15Q191.79-24.75 190.56-22.45 189.34-20.15 187.11-18.63 184.89-17.1 181.84-16.85L181.84-16.85Q182.89-16.05 183.64-14.83 184.39-13.6 185.19-12.05L185.19-12.05Q185.89-10.65 186.84-9.38 187.79-8.1 189.44-8.1L189.44-8.1Q190.29-8.1 190.84-8.53 191.39-8.95 191.79-9.95L191.79-9.95 192.09-9.8Q192.34-9.05 192.41-8.35 192.49-7.65 192.49-7.05L192.49-7.05Q192.49-3.9 190.74-1.78 188.99 0.35 186.24 0.35ZM177.34-21.25L177.34-21.25Q179.14-21.25 180.46-22.08 181.79-22.9 182.51-24.13 183.24-25.35 183.24-26.6L183.24-26.6Q183.24-28.15 182.06-29.33 180.89-30.5 178.24-30.5L178.24-30.5Q177.84-30.5 177.41-30.48 176.99-30.45 176.59-30.4L176.59-30.4Q176.64-30.05 176.64-29.73 176.64-29.4 176.64-29.4L176.64-29.4Q176.64-27.1 176.46-24.95 176.29-22.8 175.99-21.35L175.99-21.35Q176.34-21.3 176.66-21.28 176.99-21.25 177.34-21.25ZM207.93 0.2L207.93 0.2Q206.38 0.2 205.18-0.55 203.98-1.3 203.98-3.05L203.98-3.05Q203.98-5.8 205.16-8.65 206.33-11.5 208.06-14.28 209.78-17.05 211.51-19.7 213.23-22.35 214.41-24.75 215.58-27.15 215.58-29.2L215.58-29.2Q215.58-30.85 214.78-30.85L214.78-30.85Q214.23-30.85 213.53-29.98 212.83-29.1 212.53-27.4L212.53-27.4 211.98-27.5Q211.98-30.35 213.33-32.33 214.68-34.3 216.78-35.3 218.88-36.3 221.08-36.3L221.08-36.3Q223.63-36.3 225.86-34.85 228.08-33.4 228.93-30.25L228.93-30.25Q229.28-29 229.46-27.45 229.63-25.9 229.68-24.78 229.73-23.65 229.73-23.65L229.73-23.65Q229.83-19.6 229.91-16.8 229.98-14 230.18-12.1 230.38-10.2 230.73-8.9L230.73-8.9Q231.08-7.65 231.66-6.88 232.23-6.1 233.13-6.1L233.13-6.1Q233.98-6.1 234.61-6.6 235.23-7.1 235.43-7.55L235.43-7.55 235.78-7.3Q235.78-5 234.88-3.3 233.98-1.6 232.53-0.7 231.08 0.2 229.48 0.2L229.48 0.2Q227.93 0.2 226.46-0.73 224.98-1.65 223.88-3.6 222.78-5.55 222.43-8.65L222.43-8.65Q220.88-8.75 219.41-8.83 217.93-8.9 216.73-8.9L216.73-8.9Q215.93-8.9 215.21-8.88 214.48-8.85 213.78-8.8L213.78-8.8Q213.33-7.25 213.06-5.68 212.78-4.1 212.78-2.6L212.78-2.6Q212.78-1.45 211.28-0.63 209.78 0.2 207.93 0.2ZM215.43-13.45L215.43-13.45Q216.68-13.8 218.08-13.93 219.48-14.05 221.08-14.05L221.08-14.05 222.18-14.05Q222.08-17.75 221.91-21.65 221.73-25.55 220.63-28.9L220.63-28.9Q220.23-25.3 218.63-21.35 217.03-17.4 215.43-13.45ZM242.73 0.2L242.73 0.2Q241.03 0.2 239.68-1.07 238.33-2.35 238.33-5.4L238.33-5.4Q238.33-7.4 238.91-9.85 239.48-12.3 240.31-14.93 241.13-17.55 241.98-20 242.83-22.45 243.38-24.45 243.93-26.45 243.93-27.6L243.93-27.6Q243.93-28.95 242.88-28.95L242.88-28.95Q241.63-28.95 240.53-27.53 239.43-26.1 238.08-23.55L238.08-23.55 237.78-23.65Q237.78-27.6 239.88-30.53 241.98-33.45 245.56-35.05 249.13-36.65 253.53-36.65L253.53-36.65Q257.98-36.65 260.76-35.13 263.53-33.6 264.86-31.18 266.18-28.75 266.18-26L266.18-26Q266.18-23.65 265.31-21.33 264.43-19 262.81-17.1 261.18-15.2 258.98-14.05 256.78-12.9 254.13-12.9L254.13-12.9Q251.38-12.9 248.43-14.3L248.43-14.3Q247.78-11.85 247.28-9.33 246.78-6.8 246.78-4.15L246.78-4.15Q246.78-2.85 246.93-1.55L246.93-1.55Q246.08-0.7 244.96-0.25 243.83 0.2 242.73 0.2ZM250.73-17.9L250.73-17.9Q252.73-17.9 254.23-19.03 255.73-20.15 256.56-21.88 257.38-23.6 257.38-25.35L257.38-25.35Q257.38-27.4 256.06-29 254.73-30.6 251.73-30.6L251.73-30.6Q251.33-30.6 250.81-30.55 250.28-30.5 249.73-30.4L249.73-30.4Q250.13-29.15 250.26-27.93 250.38-26.7 250.38-25.55L250.38-25.55Q250.38-23.55 250.08-21.7 249.78-19.85 249.38-18.05L249.38-18.05Q250.08-17.9 250.73-17.9ZM273.38 0.2L273.38 0.2Q271.68 0.2 270.33-1.07 268.98-2.35 268.98-5.4L268.98-5.4Q268.98-7.4 269.55-9.85 270.13-12.3 270.95-14.93 271.78-17.55 272.63-20 273.48-22.45 274.03-24.45 274.58-26.45 274.58-27.6L274.58-27.6Q274.58-28.95 273.53-28.95L273.53-28.95Q272.28-28.95 271.18-27.53 270.08-26.1 268.73-23.55L268.73-23.55 268.43-23.65Q268.43-27.6 270.53-30.53 272.63-33.45 276.2-35.05 279.78-36.65 284.18-36.65L284.18-36.65Q288.63-36.65 291.4-35.13 294.18-33.6 295.5-31.18 296.83-28.75 296.83-26L296.83-26Q296.83-23.65 295.95-21.33 295.08-19 293.45-17.1 291.83-15.2 289.63-14.05 287.43-12.9 284.78-12.9L284.78-12.9Q282.03-12.9 279.08-14.3L279.08-14.3Q278.43-11.85 277.93-9.33 277.43-6.8 277.43-4.15L277.43-4.15Q277.43-2.85 277.58-1.55L277.58-1.55Q276.73-0.7 275.6-0.25 274.48 0.2 273.38 0.2ZM281.38-17.9L281.38-17.9Q283.38-17.9 284.88-19.03 286.38-20.15 287.2-21.88 288.03-23.6 288.03-25.35L288.03-25.35Q288.03-27.4 286.7-29 285.38-30.6 282.38-30.6L282.38-30.6Q281.98-30.6 281.45-30.55 280.93-30.5 280.38-30.4L280.38-30.4Q280.78-29.15 280.9-27.93 281.03-26.7 281.03-25.55L281.03-25.55Q281.03-23.55 280.73-21.7 280.43-19.85 280.03-18.05L280.03-18.05Q280.73-17.9 281.38-17.9ZM312.93 0.35L312.93 0.35Q309.57 0.35 307.15-0.88 304.72-2.1 303.15-4.23 301.57-6.35 300.8-9.05 300.02-11.75 300.02-14.75L300.02-14.75Q300.02-18.55 301.2-22.35 302.38-26.15 304.65-29.3 306.93-32.45 310.22-34.38 313.52-36.3 317.77-36.3L317.77-36.3Q321.13-36.3 323.55-35.08 325.97-33.85 327.55-31.73 329.13-29.6 329.9-26.9 330.68-24.2 330.68-21.2L330.68-21.2Q330.68-17.45 329.5-13.63 328.32-9.8 326.05-6.65 323.77-3.5 320.47-1.58 317.18 0.35 312.93 0.35ZM314.77-6L314.77-6Q316.52-6 317.82-7.2 319.13-8.4 320-10.38 320.88-12.35 321.32-14.75 321.77-17.15 321.77-19.6L321.77-19.6Q321.77-22.3 321.2-24.68 320.63-27.05 319.4-28.53 318.18-30 316.22-30L316.22-30Q314.52-30 313.18-28.83 311.82-27.65 310.88-25.68 309.93-23.7 309.45-21.33 308.97-18.95 308.97-16.55L308.97-16.55Q308.97-13.8 309.63-11.4 310.27-9 311.57-7.5 312.88-6 314.77-6ZM336.72 0.25L336.72 0.25Q335.32 0.25 334.25-0.93 333.17-2.1 333.17-5.3L333.17-5.3Q333.17-5.85 333.2-6.28 333.22-6.7 333.22-6.9L333.22-6.9Q333.42-8.9 333.8-11.88 334.17-14.85 334.67-18.13 335.17-21.4 335.7-24.45 336.22-27.5 336.67-29.78 337.12-32.05 337.42-32.9L337.42-32.9Q337.97-34.4 339.4-35.27 340.82-36.15 342.32-36.15L342.32-36.15Q343.62-36.15 344.7-35.4 345.77-34.65 346.17-32.85L346.17-32.85Q345.87-31.85 345.22-29.33 344.57-26.8 343.82-23.15 343.07-19.5 342.4-15.1 341.72-10.7 341.32-5.9L341.32-5.9Q341.27-5.05 341.17-3.93 341.07-2.8 341.02-1.65L341.02-1.65Q340.42-1 339.22-0.38 338.02 0.25 336.72 0.25ZM354.02 0.2L354.02 0.2Q352.17 0.2 350.65-1.3 349.12-2.8 349.12-6.05L349.12-6.05Q349.12-9.3 349.75-12.33 350.37-15.35 351.19-18.15 352.02-20.95 352.65-23.48 353.27-26 353.27-28.25L353.27-28.25Q352.52-28.55 351.87-28.55L351.87-28.55Q350.97-28.55 350.37-28 349.77-27.45 349.42-26.5L349.42-26.5 348.92-26.65Q348.97-30.15 349.94-32.23 350.92-34.3 352.47-35.2 354.02-36.1 355.67-36.1L355.67-36.1Q358.17-36.1 360.15-34.48 362.12-32.85 363.69-30.05 365.27-27.25 366.44-23.73 367.62-20.2 368.47-16.38 369.32-12.55 369.82-8.85L369.82-8.85Q370.12-10.85 370.44-13.75 370.77-16.65 371.02-19.85 371.27-23.05 371.27-25.95L371.27-25.95Q371.27-28.05 371.12-29.78 370.97-31.5 370.62-32.75L370.62-32.75 370.62-33.15Q371.92-34.6 373.25-35.35 374.57-36.1 375.72-36.1L375.72-36.1Q377.42-36.1 378.55-34.63 379.67-33.15 379.67-30.45L379.67-30.45Q379.67-28.45 379.12-25.58 378.57-22.7 377.82-19.45 377.07-16.2 376.5-13.08 375.92-9.95 375.87-7.45L375.87-7.45Q375.87-6.75 375.97-5.95 376.07-5.15 377.02-5.15L377.02-5.15Q377.07-4.95 377.07-4.85 377.07-4.75 377.07-4.65L377.07-4.65Q377.02-2.75 375.52-1.28 374.02 0.2 371.52 0.2L371.52 0.2Q369.57 0.2 368.22-0.8 366.87-1.8 365.97-3.48 365.07-5.15 364.44-7.28 363.82-9.4 363.27-11.65L363.27-11.65Q362.27-15.55 361.19-19.07 360.12-22.6 358.32-25.55L358.32-25.55Q358.42-23.55 358.17-21.18 357.92-18.8 357.65-16.38 357.37-13.95 357.37-11.7L357.37-11.7Q357.37-9.7 357.72-8.03 358.07-6.35 358.97-5.05L358.97-5.05Q358.97-2.6 357.42-1.2 355.87 0.2 354.02 0.2ZM394.82 0.2L394.82 0.2Q393.27 0.2 392.09-0.6 390.92-1.4 390.97-3L390.97-3Q391.07-5.8 391.39-9.2 391.72-12.6 392.17-16.13 392.62-19.65 393.09-22.9 393.57-26.15 393.97-28.7L393.97-28.7Q393.07-28.8 392.22-28.85 391.37-28.9 390.67-28.9L390.67-28.9Q388.57-28.9 386.89-28.5 385.22-28.1 384.07-27.1L384.07-27.1Q384.07-30.25 384.59-32.23 385.12-34.2 386.54-35.1 387.97-36 390.72-36L390.72-36Q392.72-36 395.19-35.68 397.67-35.35 400.22-35 402.77-34.65 404.97-34.65L404.97-34.65Q406.77-34.65 408.19-35 409.62-35.35 410.37-36.25L410.37-36.25Q411.47-35.9 412.07-34.73 412.67-33.55 412.67-32.15L412.67-32.15Q412.67-30.9 412.12-29.73 411.57-28.55 410.37-27.78 409.17-27 407.12-27L407.12-27Q406.17-27 404.79-27.18 403.42-27.35 401.87-27.55L401.87-27.55Q401.32-24.55 400.74-20.38 400.17-16.2 399.79-11.4 399.42-6.6 399.32-1.65L399.32-1.65Q398.42-0.7 397.19-0.25 395.97 0.2 394.82 0.2ZM451.12 0L451.12 0Q449.52 0 448.04-0.9 446.57-1.8 445.67-3.75 444.77-5.7 444.77-8.75L444.77-8.75Q444.77-11.25 445.37-14.38 445.97-17.5 446.94-20.65 447.92-23.8 449.07-26.35L449.07-26.35Q445.62-24.05 443.02-20 440.42-15.95 438.52-10.6L438.52-10.6Q438.92-9 439.17-7.6 439.42-6.2 439.42-5.05L439.42-5.05Q439.42-2.85 438.37-1.6 437.32-0.35 434.72-0.35L434.72-0.35Q432.42-0.35 431.34-1.38 430.27-2.4 430.27-4.25L430.27-4.25Q430.27-5.45 430.69-7 431.12-8.55 431.92-10.35L431.92-10.35Q431.02-13 429.72-16.32 428.42-19.65 426.07-23.6L426.07-23.6Q425.37-20.65 424.64-17.73 423.92-14.8 423.44-12.33 422.97-9.85 422.97-8.15L422.97-8.15Q422.97-5.4 424.47-5.4L424.47-5.4 424.57-5.3Q424.57-3.65 423.74-2.48 422.92-1.3 421.64-0.68 420.37-0.05 418.97-0.05L418.97-0.05Q417.62-0.05 416.34-0.7 415.07-1.35 414.27-2.73 413.47-4.1 413.47-6.25L413.47-6.25Q413.47-8.3 414.19-10.73 414.92-13.15 416.02-15.68 417.12-18.2 418.27-20.63 419.42-23.05 420.34-25.18 421.27-27.3 421.57-28.9L421.57-28.9Q420.57-29.6 419.42-29.6L419.42-29.6Q418.47-29.6 417.49-28.98 416.52-28.35 415.67-26.9L415.67-26.9 415.32-27.05Q415.37-29.6 416.42-31.73 417.47-33.85 419.19-35.13 420.92-36.4 422.97-36.4L422.97-36.4Q425.32-36.4 427.82-34.35 430.32-32.3 432.44-27.6 434.57-22.9 435.87-14.9L435.87-14.9Q437.77-21.05 439.97-25.2 442.17-29.35 444.49-31.8 446.82-34.25 449.09-35.33 451.37-36.4 453.42-36.4L453.42-36.4Q455.97-36.4 457.99-35.15 460.02-33.9 461.19-32 462.37-30.1 462.37-28.2L462.37-28.2Q461.12-28.55 459.89-28.7 458.67-28.85 457.52-28.85L457.52-28.85Q456.37-28.85 455.32-28.7L455.32-28.7Q454.87-26.4 454.37-23.58 453.87-20.75 453.49-17.9 453.12-15.05 453.12-12.65L453.12-12.65Q453.12-10.2 453.62-8.65 454.12-7.1 455.37-7.1L455.37-7.1Q456.17-7.1 456.99-7.8 457.82-8.5 458.22-9.95L458.22-9.95 458.57-9.8Q458.57-6.5 457.47-4.33 456.37-2.15 454.64-1.07 452.92 0 451.12 0ZM472.01 0.35L472.01 0.35Q468.66 0.35 466.46-0.88 464.26-2.1 463.21-4.08 462.16-6.05 462.16-8.35L462.16-8.35Q462.16-10.4 462.96-12.4 463.76-14.4 465.34-16.05 466.91-17.7 469.16-18.65L469.16-18.65Q467.11-19.95 466.09-21.78 465.06-23.6 465.06-25.6L465.06-25.6Q465.06-28.2 466.76-30.65 468.46-33.1 471.71-34.7 474.96-36.3 479.51-36.3L479.51-36.3Q482.66-36.3 484.54-35.52 486.41-34.75 487.26-33.52 488.11-32.3 488.11-30.9L488.11-30.9Q488.11-29.3 487.11-27.73 486.11-26.15 484.24-25.15 482.36-24.15 479.66-24.15L479.66-24.15Q480.46-26.5 480.46-28.05L480.46-28.05Q480.46-29.6 479.81-30.3 479.16-31 478.21-31L478.21-31Q477.21-31 476.09-30.25 474.96-29.5 474.21-28.15 473.46-26.8 473.46-25L473.46-25Q473.46-24.05 473.76-22.88 474.06-21.7 474.71-20.55L474.71-20.55Q475.81-21.25 476.74-21.58 477.66-21.9 478.41-21.9L478.41-21.9Q479.96-21.9 480.66-20.83 481.36-19.75 481.36-18.4L481.36-18.4Q481.36-16.8 480.39-15.35 479.41-13.9 477.51-13.9L477.51-13.9Q475.76-13.9 473.41-15.55L473.41-15.55Q470.66-13.6 470.66-10.95L470.66-10.95Q470.66-8.9 471.94-7.85 473.21-6.8 475.21-6.8L475.21-6.8Q477.76-6.8 480.91-8.58 484.06-10.35 486.51-13.9L486.51-13.9 486.91-13.65Q486.81-10.15 485.49-7.53 484.16-4.9 482.04-3.15 479.91-1.4 477.31-0.53 474.71 0.35 472.01 0.35ZM494.96 0.2L494.96 0.2Q493.11 0.2 491.59-1.3 490.06-2.8 490.06-6.05L490.06-6.05Q490.06-9.3 490.69-12.33 491.31-15.35 492.14-18.15 492.96-20.95 493.59-23.48 494.21-26 494.21-28.25L494.21-28.25Q493.46-28.55 492.81-28.55L492.81-28.55Q491.91-28.55 491.31-28 490.71-27.45 490.36-26.5L490.36-26.5 489.86-26.65Q489.91-30.15 490.89-32.23 491.86-34.3 493.41-35.2 494.96-36.1 496.61-36.1L496.61-36.1Q499.11-36.1 501.09-34.48 503.06-32.85 504.64-30.05 506.21-27.25 507.39-23.73 508.56-20.2 509.41-16.38 510.26-12.55 510.76-8.85L510.76-8.85Q511.06-10.85 511.39-13.75 511.71-16.65 511.96-19.85 512.21-23.05 512.21-25.95L512.21-25.95Q512.21-28.05 512.06-29.78 511.91-31.5 511.56-32.75L511.56-32.75 511.56-33.15Q512.86-34.6 514.19-35.35 515.51-36.1 516.66-36.1L516.66-36.1Q518.36-36.1 519.49-34.63 520.61-33.15 520.61-30.45L520.61-30.45Q520.61-28.45 520.06-25.58 519.51-22.7 518.76-19.45 518.01-16.2 517.44-13.08 516.86-9.95 516.81-7.45L516.81-7.45Q516.81-6.75 516.91-5.95 517.01-5.15 517.96-5.15L517.96-5.15Q518.01-4.95 518.01-4.85 518.01-4.75 518.01-4.65L518.01-4.65Q517.96-2.75 516.46-1.28 514.96 0.2 512.46 0.2L512.46 0.2Q510.51 0.2 509.16-0.8 507.81-1.8 506.91-3.48 506.01-5.15 505.39-7.28 504.76-9.4 504.21-11.65L504.21-11.65Q503.21-15.55 502.14-19.07 501.06-22.6 499.26-25.55L499.26-25.55Q499.36-23.55 499.11-21.18 498.86-18.8 498.59-16.38 498.31-13.95 498.31-11.7L498.31-11.7Q498.31-9.7 498.66-8.03 499.01-6.35 499.91-5.05L499.91-5.05Q499.91-2.6 498.36-1.2 496.81 0.2 494.96 0.2ZM535.76 0.2L535.76 0.2Q534.21 0.2 533.03-0.6 531.86-1.4 531.91-3L531.91-3Q532.01-5.8 532.33-9.2 532.66-12.6 533.11-16.13 533.56-19.65 534.03-22.9 534.51-26.15 534.91-28.7L534.91-28.7Q534.01-28.8 533.16-28.85 532.31-28.9 531.61-28.9L531.61-28.9Q529.51-28.9 527.83-28.5 526.16-28.1 525.01-27.1L525.01-27.1Q525.01-30.25 525.53-32.23 526.06-34.2 527.48-35.1 528.91-36 531.66-36L531.66-36Q533.66-36 536.13-35.68 538.61-35.35 541.16-35 543.71-34.65 545.91-34.65L545.91-34.65Q547.71-34.65 549.13-35 550.56-35.35 551.31-36.25L551.31-36.25Q552.41-35.9 553.01-34.73 553.61-33.55 553.61-32.15L553.61-32.15Q553.61-30.9 553.06-29.73 552.51-28.55 551.31-27.78 550.11-27 548.06-27L548.06-27Q547.11-27 545.73-27.18 544.36-27.35 542.81-27.55L542.81-27.55Q542.26-24.55 541.68-20.38 541.11-16.2 540.73-11.4 540.36-6.6 540.26-1.65L540.26-1.65Q539.36-0.7 538.13-0.25 536.91 0.2 535.76 0.2Z" opacity="1" transform="matrix(1,0,0,1,0,0)" fill="#cf51ee" class="wordmark-text-0" data-fill-palette-color="primary" id="text-0"></path></svg></g></svg></g></svg></g></svg></g><g><svg viewBox="0 0 35.91714074232672 37.15284431952126" height="37.15284431952126" width="35.91714074232672"><g><svg xmlns="http://www.w3.org/2000/svg" xmlns:xlink="http://www.w3.org/1999/xlink" version="1.1" x="0" y="0" viewBox="0 0 96.67400006694709 100" enable-background="new 0 0 100 100" xml:space="preserve" height="37.15284431952126" width="35.91714074232672" class="icon-icon-0" data-fill-palette-color="accent" id="icon-0"><g fill="#b873e8" data-fill-palette-color="accent"><g fill="#b873e8" data-fill-palette-color="accent"><path d="M26.979 50.023V49.985H26.208C11.756 49.985 0 61.349 0 75.316V100H13.938C12.932 97.937 12.365 95.677 12.365 93.303V88.882C8.345 87.481 5.449 83.664 5.449 79.173 5.449 73.5 10.064 68.885 15.737 68.885 21.411 68.885 26.026 73.5 26.026 79.173 26.026 83.664 23.129 87.481 19.11 88.882V93.303C19.11 95.814 20.274 98.154 22.187 100H42.158A13.45 13.45 0 0 0 46.089 90.492V70.201C35.456 69.612 26.979 60.801 26.979 50.023" fill="#b873e8" data-fill-palette-color="accent"></path><path d="M71.174 49.985H69.695V50.023C69.695 60.028 62.387 68.339 52.834 69.954V90.492C52.834 93.927 51.968 97.163 50.449 100H76.44V79.753H80.937V100H96.674V75.316C96.675 61.112 85.473 49.985 71.174 49.985" fill="#b873e8" data-fill-palette-color="accent"></path><path d="M62.951 50.023V49.985H33.724V50.023C33.724 57.461 39.776 63.512 47.213 63.512H49.462C56.9 63.513 62.951 57.462 62.951 50.023" fill="#b873e8" data-fill-palette-color="accent"></path><path d="M48.48 41.593C59.655 41.593 68.714 32.534 68.714 21.359V20.979C68.682 20.57 68.668 20.235 68.685 20.235S68.714 18.212 68.714 15.738V4.496A4.51 4.51 0 0 0 64.218 0H32.742A4.51 4.51 0 0 0 28.246 4.496V15.737C28.246 18.211 28.258 20.234 28.274 20.234S28.277 20.569 28.246 20.978V21.358C28.246 32.534 37.305 41.593 48.48 41.593" fill="#b873e8" data-fill-palette-color="accent"></path></g></g></svg></g></svg></g></svg></g><defs></defs></svg><rect width="395.52" height="32.92115482642983" fill="none" stroke="none" visibility="hidden"></rect></g></svg></g></svg>